<svg width="19" height="20" viewBox="0 0 19 20" fill="none" xmlns="http://www.w3.org/2000/svg">
<path d="M12.4239 14.6829V18.6829H6.42392V14.6829M16.7022 14.6829H2.14565C1.59702 14.6829 1.32271 14.6829 1.18502 14.5712C1.06534 14.4742 0.997111 14.3273 1.00009 14.1732C1.00353 13.996 1.18042 13.7863 1.53421 13.367L3.55921 10.967C3.64735 10.8626 3.69142 10.8103 3.74524 10.7728C3.79293 10.7395 3.84606 10.7149 3.90224 10.6999C3.96563 10.6829 4.03397 10.6829 4.17065 10.6829H14.6772C14.8139 10.6829 14.8822 10.6829 14.9456 10.6999C15.0018 10.7149 15.0549 10.7395 15.1026 10.7728C15.1564 10.8103 15.2005 10.8626 15.2886 10.967L17.3136 13.367C17.6674 13.7863 17.8443 13.996 17.8478 14.1732C17.8507 14.3273 17.7825 14.4742 17.6628 14.5712C17.5251 14.6829 17.2508 14.6829 16.7022 14.6829ZM3.02628 9.28086L5.76914 6.88086C5.85284 6.80762 5.8947 6.77099 5.94211 6.7449C5.98417 6.72175 6.02934 6.70478 6.07623 6.6945C6.1291 6.68292 6.18471 6.68292 6.29594 6.68292H12.5519C12.6631 6.68292 12.7188 6.68292 12.7716 6.6945C12.8185 6.70478 12.8637 6.72175 12.9057 6.7449C12.9531 6.77099 12.995 6.80762 13.0787 6.88086L15.8216 9.28086C16.3176 9.71485 16.5656 9.93185 16.5893 10.1205C16.6099 10.284 16.5486 10.4471 16.4255 10.5566C16.2834 10.6829 15.9538 10.6829 15.2948 10.6829H3.55308C2.89403 10.6829 2.5645 10.6829 2.4224 10.5566C2.29928 10.4471 2.238 10.284 2.25856 10.1205C2.28229 9.93185 2.53029 9.71485 3.02628 9.28086ZM10.4652 1.57544L14.782 5.27552C15.2891 5.71025 15.5427 5.92761 15.5679 6.11697C15.5898 6.281 15.529 6.44521 15.4057 6.55555C15.2633 6.68292 14.9293 6.68292 14.2613 6.68292H4.58653C3.91853 6.68292 3.58452 6.68292 3.44216 6.55555C3.31884 6.44521 3.2581 6.281 3.27992 6.11697C3.30512 5.92761 3.55871 5.71025 4.0659 5.27552L8.38266 1.57544C8.75223 1.25866 8.93702 1.10027 9.14425 1.0399C9.32691 0.986699 9.52094 0.986699 9.7036 1.0399C9.91083 1.10027 10.0956 1.25866 10.4652 1.57544Z" stroke="black" stroke-width="2" stroke-linejoin="round"/>
</svg>
