<svg width="24" height="24" viewBox="0 0 24 24" fill="none" xmlns="http://www.w3.org/2000/svg">
<path d="M2 16.5L2.61612 17.1161C3.18206 17.6821 3.94964 18 4.75 18C5.55036 18 6.31794 17.6821 6.88388 17.1161L7.11612 16.8839C7.68206 16.3179 8.44964 16 9.25 16C10.0504 16 10.8179 16.3179 11.3839 16.8839L11.6161 17.1161C12.1821 17.6821 12.9496 18 13.75 18C14.5504 18 15.3179 17.6821 15.8839 17.1161L16.1161 16.8839C16.6821 16.3179 17.4496 16 18.25 16C19.0504 16 19.8179 16.3179 20.3839 16.8839L21 17.5" stroke="black" stroke-width="2" stroke-linecap="round" stroke-linejoin="round"/>
<path d="M5 8.5V12.5H2M9.5 12.5V5M14 12.5V7.5M18 9V12.5H21.5" stroke="black" stroke-width="2" stroke-linecap="round"/>
</svg>
